<?xml version="1.0" encoding="UTF-8" standalone="no"?>
<!-- Created with Inkscape (http://www.inkscape.org/) -->

<svg
   width="182"
   height="186"
   viewBox="0 0 182 186"
   version="1.1"
   id="svg1"
   xml:space="preserve"
   inkscape:version="1.4 (e7c3feb100, 2024-10-09)"
   sodipodi:docname="Comunica_Open.svg"
   xmlns:inkscape="http://www.inkscape.org/namespaces/inkscape"
   xmlns:sodipodi="http://sodipodi.sourceforge.net/DTD/sodipodi-0.dtd"
   xmlns="http://www.w3.org/2000/svg"
   xmlns:svg="http://www.w3.org/2000/svg"><sodipodi:namedview
     id="namedview1"
     pagecolor="#ffffff"
     bordercolor="#000000"
     borderopacity="0"
     inkscape:showpageshadow="2"
     inkscape:pageopacity="0.0"
     inkscape:pagecheckerboard="0"
     inkscape:deskcolor="#d1d1d1"
     inkscape:document-units="px"
     inkscape:zoom="1.4733556"
     inkscape:cx="-1.0180842"
     inkscape:cy="127.93924"
     inkscape:window-width="1920"
     inkscape:window-height="1048"
     inkscape:window-x="0"
     inkscape:window-y="0"
     inkscape:window-maximized="1"
     inkscape:current-layer="g5" /><defs
     id="defs1" /><g
     inkscape:label="Layer 1"
     inkscape:groupmode="layer"
     id="layer1"><g
       id="g5"
       transform="translate(2.3755298,-7.4659505)"><g
         id="g2"
         transform="translate(120.13393,-51.582931)"><circle
           style="opacity:0.964794;fill:#c9c9c9;fill-opacity:1;stroke:#000000"
           id="path2"
           cx="-32.748375"
           cy="151.52487"
           r="87.046196" /><path
           d="m 25.494291,178.35737 c -2.587189,0.82784 -5.141734,1.5709 -7.616182,2.46396 -1.779293,0.64383 -3.472547,1.45976 -5.169699,2.25279 -1.224458,0.57341 -2.366967,1.26964 -3.5953241,1.83561 -0.411986,0.18883 -1.024508,0.2911 -1.4591,0.18543 -1.913765,-0.46989 -3.424411,-0.016 -4.745923,1.16689 -1.6122779,1.44297 -3.24813793,2.86571 -4.9201489,4.25952 -1.809892,1.51004 -3.9505997,2.64033 -6.2587129,3.52843 -4.4643141,1.71696 -9.1116261,3.01836 -13.7794011,4.2852 -1.472352,0.40015 -2.905921,1.03374 -4.191866,1.76421 -2.052132,1.16893 -4.312597,1.73493 -6.682976,2.19038 -3.647943,0.70115 -7.167751,1.71174 -10.286973,3.51868 -0.343192,0.1993 -0.63318,0.46558 -0.976469,0.6649 -0.221291,0.12872 -0.512644,0.30046 -0.745531,0.27414 -1.295201,-0.14126 -2.061974,0.46985 -2.729355,1.25275 -1.018272,1.19264 -2.377493,1.98053 -4.044047,2.41339 -0.872596,0.22732 -1.764484,0.41742 -2.605313,0.70617 -1.82938,0.62876 -3.532377,1.41065 -4.887798,2.68111 -0.454957,0.4276 -1.18022,0.68995 -1.834837,0.92018 -1.68497,0.59643 -3.372962,1.20275 -5.112306,1.66858 -1.233326,0.3313 -2.545385,0.47454 -3.834058,0.62706 -0.490037,0.0579 -1.032303,-0.0463 -1.520586,-0.16359 -1.681463,-0.40364 -2.347773,-1.69391 -1.601755,-3.02005 0.60307,-1.07119 1.664216,-1.78215 2.778858,-2.43517 1.39732,-0.82153 2.782072,-1.66729 4.259004,-2.38066 0.8343,-0.40351 1.821584,-0.60824 2.766774,-0.81763 1.947577,-0.43066 3.457639,-1.44773 4.963316,-2.47864 1.167844,-0.80045 2.200537,-1.68896 2.877955,-2.84661 0.389477,-0.66684 1.22748,-0.864 1.972523,-1.14903 0.524629,-0.20088 1.043801,-0.43283 1.521852,-0.70309 1.819344,-1.03172 3.623681,-2.08231 5.428896,-3.13103 0.325359,-0.18835 0.670694,-0.37305 0.931937,-0.61343 0.200146,-0.18508 0.459829,-0.51548 0.382558,-0.67536 -0.118294,-0.24443 -0.482729,-0.52578 -0.784117,-0.56257 -0.538368,-0.066 -1.126919,-0.0299 -1.652621,0.0919 -0.540122,0.12473 -0.783532,-0.0502 -1.010865,-0.38771 -0.951816,-1.41897 -1.905871,-2.83712 -2.964679,-4.41187 0.02241,0.29904 0.02046,0.43885 0.04385,0.57437 0.214664,1.35645 0.417441,2.71499 0.667089,4.06761 0.06042,0.32715 -0.02533,0.5085 -0.353326,0.66035 -2.00614,0.93581 -4.007506,1.88089 -6.011794,2.82042 -0.571401,0.26863 -1.164922,0.50986 -1.72541,0.79442 -1.123021,0.56545 -1.420122,0.56248 -2.452815,-0.0826 -0.120926,-0.0756 -0.257052,-0.13463 -0.427967,-0.22529 0.246725,1.28526 0.06918,1.37785 -1.148843,2.14596 -1.633619,1.02858 -3.534131,1.27427 -5.423731,1.63314 -3.037176,0.5752 -5.883755,1.59625 -8.700029,2.68597 -0.0419,0.0154 -0.08867,0.0322 -0.122194,0.0597 -2.62899,1.95878 -5.958006,2.5667 -9.204975,3.29291 -1.886189,0.42171 -3.813304,0.36547 -5.65574,-0.26283 -2.303043,-0.78421 -2.824067,-2.54467 -1.274935,-4.18132 0.942364,-0.99723 2.224899,-1.61152 3.523511,-2.18965 1.733692,-0.77318 3.479953,-1.53756 5.271331,-2.21444 1.234788,-0.46664 2.630842,-0.65137 3.820515,-1.17462 3.376371,-1.48241 6.761514,-2.96352 9.701832,-5.05043 0.904459,-0.64102 1.953814,-1.14446 2.963608,-1.67337 0.347479,-0.18094 0.782559,-0.24334 1.177881,-0.36207 0.19927,-0.0589 0.444825,-0.0791 0.583484,-0.18904 0.762388,-0.60947 1.760878,-0.7719 2.686384,-1.09575 1.230208,-0.42962 2.383339,-1.00815 3.602244,-1.46462 1.497199,-0.56162 3.025191,-1.06364 4.537689,-1.59542 0.86022,-0.30241 0.913228,-0.60883 0.29447,-1.16279 -0.326529,-0.29507 -0.591376,-0.65444 -0.811595,-1.01449 -0.307333,-0.50312 -0.546749,-1.03303 -0.907188,-1.73123 -0.387138,0.8096 -0.727796,1.44328 -0.990695,2.09972 -0.144409,0.35938 -0.385482,0.5571 -0.803216,0.653 -3.275228,0.74306 -6.550552,1.49064 -9.825683,2.23373 -0.06236,0.0134 -0.135347,-0.007 -0.334323,-0.0182 0.205213,-0.35928 0.386942,-0.67698 0.600633,-1.05038 -0.902607,0.51663 -1.699879,1.06363 -2.590209,1.46089 -1.64648,0.73273 -3.353181,1.24638 -5.311964,0.98063 -1.666262,-0.22578 -3.29764,0.18328 -4.909529,0.51239 -1.726383,0.35288 -3.467676,0.68232 -5.158298,1.13497 -1.266456,0.33888 -2.4305,0.95235 -3.702414,1.27552 -3.050721,0.77896 -6.176078,1.2601 -9.389917,1.19654 -0.30363,-0.005 -0.607942,-0.0475 -0.907192,-0.085 -1.45305,-0.18131 -2.65413,-0.64614 -3.13364,-1.93768 -0.46918,-1.26653 -0.0799,-2.37311 0.94607,-3.32099 1.17954,-1.08971 2.721266,-1.73374 4.339391,-2.21974 2.514009,-0.75495 5.050523,-1.45614 7.590257,-2.14083 0.382363,-0.103 0.846383,0.003 1.203997,0.0107 0.276833,-0.16426 0.555323,-0.41746 0.898222,-0.51505 1.865822,-0.52261 3.793522,-0.91512 5.612281,-1.52897 2.189526,-0.73918 4.302951,-1.6409 6.43255,-2.50643 1.322972,-0.5361 2.678004,-0.87175 4.157664,-0.97174 0.814324,-0.0538 1.596006,-0.40072 2.40653,-0.57463 3.264412,-0.69722 6.53545,-1.37688 9.802784,-2.06853 0.271864,-0.0563 0.538466,-0.13297 0.802339,-0.21514 0.544995,-0.16628 0.801268,-0.49321 0.612425,-0.96627 -0.429136,-1.07115 -0.887992,-2.1337 -1.507042,-3.20462 -0.226845,0.44003 -0.484482,0.87137 -0.674105,1.32224 -0.22207,0.5311 -0.637564,0.78974 -1.296664,0.82714 -1.32726,0.078 -2.65569,0.15872 -3.978273,0.26603 -1.320341,0.1065 -2.636396,0.26227 -3.959368,0.35867 -0.200732,0.0151 -0.526773,-0.12542 -0.62022,-0.27059 -0.317467,-0.49723 -0.556591,-1.03167 -0.824849,-1.55113 l -0.1867,0.0167 c -0.201899,0.44211 -0.408087,0.8813 -0.604725,1.32366 -0.24,0.54208 -0.643119,0.90669 -1.385434,0.90566 -0.976857,-1.1e-4 -1.966092,0.0728 -2.929015,-0.023 -2.857298,-0.28313 -5.69618,-0.2747 -8.505925,0.27566 -0.930281,0.18193 -1.802779,0.57279 -2.730331,0.7603 -3.179442,0.64215 -6.405652,1.04046 -9.640051,0.38994 -2.712988,-0.54532 -3.402878,-2.60709 -1.578564,-4.38084 1.134909,-1.10452 2.686676,-1.63722 4.2782,-2.05179 2.837708,-0.74165 5.695299,-1.43969 8.563217,-2.09727 1.213448,-0.27775 2.498029,-0.33596 3.713426,-0.60998 2.008576,-0.45052 3.990843,-0.99316 5.980418,-1.50091 0.559805,-0.14287 1.107332,-0.32994 1.674739,-0.44246 0.763655,-0.15246 1.540269,-0.228 2.013351,0.182 0.610671,-0.14142 1.061243,-0.30665 1.528576,-0.34754 3.323168,-0.29203 6.650431,-0.54571 9.972236,-0.84599 0.665919,-0.0598 1.355031,-0.18756 1.965993,-0.41526 2.43859,-0.91107 5.044389,-1.33015 7.601078,-1.89503 1.879172,-0.41479 3.749089,-0.86813 5.606434,-1.34572 0.480293,-0.12296 0.930964,-0.36996 1.342656,-0.62058 1.055592,-0.64488 2.092864,-1.30969 3.10792,-1.99735 0.265919,-0.1802 0.659684,-0.58339 0.58553,-0.69134 -0.178904,-0.26452 -0.572863,-0.54182 -0.920537,-0.5862 -0.752253,-0.0968 -1.535592,-0.10068 -2.298467,-0.0545 -1.536468,0.0919 -3.066896,0.24127 -4.716008,0.37608 0.350013,-0.78954 0.669624,-1.51508 0.990111,-2.23872 l -0.06626,-0.0357 c -0.704995,0.72573 -1.392255,1.46501 -2.125313,2.17216 -0.199464,0.19149 -0.523849,0.40168 -0.801364,0.41146 -2.725361,0.10002 -5.454328,0.13723 -7.995718,-0.88343 -3.5887,-1.44379 -6.97657,-3.13261 -9.556938,-5.75223 -0.843752,-0.857 -1.527504,-1.7874 -1.746164,-2.90597 -0.380707,-1.94379 1.24882,-3.18967 3.497006,-2.62423 1.095251,0.27546 2.156981,0.66475 3.212865,1.04287 2.977542,1.06825 6.012574,1.78212 9.288094,1.14719 0.249549,-0.0483 0.514787,-0.0714 0.749136,-0.14949 1.305433,-0.437 2.554544,-0.20614 3.898565,-0.002 2.313278,0.35407 4.683754,0.53274 7.034255,0.57057 1.03776,0.0158 2.096372,-0.48005 3.133937,-0.77146 1.728722,-0.48628 3.438931,-1.01888 5.173207,-1.48948 1.108697,-0.30171 2.179489,-0.0174 3.224265,0.29844 4.502609,1.36286 8.994402,2.75609 13.50968,4.09228 3.938321,1.16482 7.9022704,2.27178 11.8563775,3.39556 2.0568105,0.5838 4.0696735,0.2334 6.07571647,-0.22726 2.39386303,-0.54795 4.80701893,-1.0432 7.17427993,-1.66328 1.311183,-0.34404 2.5418781,-0.89536 3.8608551,-1.37262 l 14.165076,27.43062 z m -60.504596,-1.92917 -0.07991,0.0953 c 1.143193,0.66473 2.271767,1.3524 3.439808,1.98378 0.541778,0.29236 1.144556,0.54488 1.760975,0.69534 2.427676,0.59108 4.886239,1.09366 7.301344,1.71141 1.313813,0.33561 2.583972,0.42847 3.914546,0.15255 0.741632,-0.15348 1.505969,-0.23777 2.259392,-0.35346 -0.27352,-0.10391 -0.527259,-0.10089 -0.782266,-0.1037 -0.956784,-0.008 -1.939977,0.10307 -2.863437,-0.0446 -3.219978,-0.50991 -6.420564,-1.0998 -9.62232,-1.68699 -0.490037,-0.0901 -0.969647,-0.28778 -1.409209,-0.49997 -1.316833,-0.63287 -2.613985,-1.29931 -3.91971,-1.95163 z m -2.251012,20.87427 0.07308,-0.0793 c -0.740561,-0.87672 -1.452473,-1.77481 -2.239318,-2.62369 -0.342121,-0.37119 -0.816079,-0.67039 -1.269283,-0.95499 -0.589623,-0.37001 -1.426651,-0.57983 -1.798881,-1.05505 -1.190061,-1.52276 -2.490038,-3.01245 -3.222024,-4.76729 0.206091,0.7364 0.425238,1.47251 0.720586,2.18767 0.26553,0.64196 0.46129,1.36884 0.964873,1.85836 0.747089,0.73075 1.696469,1.3374 2.640099,1.90197 0.936224,0.56059 1.833082,1.12663 2.517224,1.91985 0.488575,0.56789 1.071182,1.07749 1.611889,1.61327 z m -10.559131,7.23452 c -1.109963,-1.61805 -1.906164,-1.95316 -3.619101,-1.57424 0.342607,0.413 0.674496,0.81004 1.003948,1.20788 l 0.09062,-0.0394 -0.131352,-0.76564 c 0.896274,0.39608 1.713424,0.75672 2.65608,1.17137 z m -18.089073,-10.28652 -0.07893,0.10354 c 0.539439,0.50303 1.14894,0.96754 1.601462,1.52196 0.447747,0.54959 0.740561,1.1883 1.100123,1.78741 -0.08185,-0.8342 -0.270305,-1.64789 -0.474641,-2.45782 -0.02046,-0.0829 -0.117223,-0.18082 -0.20804,-0.21867 -0.64078,-0.25427 -1.291791,-0.49099 -1.938417,-0.73679 z m 35.770157,-13.74215 c 1.322681,1.21184 5.387579,3.11756 6.780808,3.25429 -2.309771,-1.10887 -4.544802,-2.18066 -6.780808,-3.25429 z m -41.339467,4.74625 0.143532,0.0122 c -0.226942,-0.60293 -0.450573,-1.20478 -0.706066,-1.88355 0.389574,0.0999 0.669233,0.17111 0.949769,0.24416 l 0.06821,-0.0976 c -0.622948,-0.40882 -1.243558,-0.81842 -1.866506,-1.22723 l -0.08088,0.0625 1.491159,2.88774 z m 43.658104,-0.13376 -0.135639,0.1772 c 1.184702,0.64304 2.369502,1.2861 3.555276,1.93099 l 0.111762,-0.1465 c -1.177493,-0.6545 -2.354984,-1.30903 -3.533644,-1.96089 z m -45.727387,-15.08938 c 0.132716,0.59942 0.251986,1.1374 0.386066,1.74961 q 0.493253,-1.26344 -0.386066,-1.74961 z"
           id="path1-2"
           style="fill:#a4c2d6;fill-opacity:1;stroke:none;stroke-width:1.08861;stroke-dasharray:none;stroke-opacity:1" /><path
           d="m 23.689855,178.45531 c -11.455794,3.00708 -22.89209803,6.01127 -34.407525,9.03306 -0.12687,-0.30456 -0.234446,-0.55097 -0.32955,-0.80072 -1.190159,-3.08346 -2.958443,-5.94339 -4.908554,-8.72282 -1.140172,-1.62845 -3.103827,-2.58252 -4.811599,-3.74282 -2.967894,-2.01711 -6.068798,-3.92835 -8.787143,-6.16431 -2.343776,-1.92867 -4.244582,-4.23536 -6.311234,-6.39342 -2.884874,-3.01061 -5.749285,-6.0342 -8.608337,-9.06358 -0.447455,-0.47435 -0.959903,-0.95667 -1.191815,-1.50952 -0.723704,-1.7274 -2.166628,-2.9165 -3.969309,-3.79174 -1.849356,-0.89839 -3.751915,-1.74303 -5.721027,-2.4351 -1.601268,-0.56213 -3.013887,-1.28575 -4.246921,-2.28733 -2.075811,-1.68276 -4.321562,-3.17034 -6.930772,-4.24464 -2.343973,-0.96681 -4.195277,-2.49164 -6.12132,-3.91118 -1.48044,-1.09172 -2.849113,-2.29669 -4.203266,-3.50079 -0.749429,-0.66538 -1.162292,-1.48741 -1.201756,-2.43947 -0.08575,-2.05906 2.02368,-3.39215 4.636593,-2.78332 1.274251,0.29638 2.16156,1.0819 3.142706,1.76327 2.889064,2.0022 5.812817,3.96582 8.728776,5.93913 1.375201,0.93083 2.889356,1.63006 4.627725,1.98286 1.628552,0.32992 3.221732,0.75938 4.630551,1.55395 0.892278,0.50112 1.749088,1.04689 2.655008,1.53054 1.744606,0.9307 3.502365,1.84798 5.279906,2.7339 0.514885,0.25673 1.163461,0.59678 1.70826,0.10898 0.537004,-0.48214 0.376712,-1.13238 -0.04482,-1.57261 -0.981242,-1.02097 -1.999123,-2.03807 -3.147285,-2.92675 -3.068163,-2.377 -6.220419,-4.67973 -9.325414,-7.02438 -1.473717,-1.11368 -2.453011,-2.525 -3.377835,-3.97372 -2.051646,-3.20851 -4.452232,-6.23061 -7.340613,-8.94656 -2.805362,-2.63569 -4.976277,-5.61549 -7.080055,-8.64005 -0.804385,-1.15675 -1.626212,-2.30844 -2.312108,-3.515 -0.576274,-1.01083 -0.818807,-2.11748 -0.481851,-3.24005 0.415883,-1.38831 2.058564,-2.383436 3.778223,-2.405936 1.478686,-0.0187 2.713474,0.425753 3.652524,1.344556 2.946848,2.88419 5.934523,5.74439 8.115865,9.1112 1.868064,2.88428 3.9582,5.64569 6.695935,8.02312 1.806482,1.56688 3.667628,3.09028 5.429871,4.69111 1.850037,1.68135 3.554302,3.47593 5.432793,5.13663 1.494763,1.32238 3.15362,2.51432 4.744656,3.76115 0.161461,0.12768 0.347966,0.27516 0.550841,0.31789 0.310158,0.0654 0.758489,0.16362 0.944214,0.0385 0.224507,-0.15323 0.403996,-0.57354 0.313472,-0.79252 -0.443362,-1.05976 -0.857296,-2.15232 -1.514836,-3.12127 -2.050575,-3.02341 -4.177154,-6.01069 -6.329165,-8.98326 -1.77676,-2.4497 -3.091062,-5.02202 -3.862219,-7.83618 -1.455592,-5.3099 -3.871184,-10.36039 -6.319615,-15.396606 -1.465726,-3.01461 -3.141049,-5.966582 -4.045021,-9.156823 -0.2743,-0.964164 -0.531059,-1.933378 -0.211059,-2.914628 0.62402,-1.918725 2.408673,-2.726338 4.532621,-3.015319 2.062268,-0.278441 3.323949,0.814344 4.264462,2.16639 2.52346,3.627369 4.592451,7.424642 6.268359,11.38735 1.425385,3.37009 2.708407,6.843456 4.738907,9.959176 2.92736,4.49362 5.180321,9.2618 8.268264,13.66951 1.566774,2.23573 3.422559,4.33024 5.179637,6.47167 0.257248,0.31444 0.555908,0.76762 1.190842,0.5598 0.622557,-0.20451 0.759756,-0.69854 0.655883,-1.15626 -0.273131,-1.20405 -0.512741,-2.43049 -0.98933,-3.58378 -0.822413,-1.99363 -1.776567,-3.95046 -2.736079,-5.90152 -1.486579,-3.02604 -2.539734,-6.12153 -2.432548,-9.43185 0.07893,-2.4681 -0.731596,-4.800623 -1.629234,-7.105856 -1.781731,-4.56696 -3.672792,-9.105934 -5.412329,-13.684579 -0.469575,-1.236228 -0.762779,-2.571661 -0.785385,-3.864341 -0.03312,-1.909469 1.533059,-2.939746 3.809114,-2.877915 2.673229,0.07356 4.207554,1.331227 5.469722,3.182555 3.444972,5.055571 5.409407,10.552705 7.202831,16.11478 0.654129,2.02824 1.512984,3.991546 2.787627,5.809066 1.543094,2.19973 2.226261,4.65271 3.007163,7.07292 1.419246,4.40278 3.33915,8.63439 5.9789574,12.63076 1.2103296,1.83194 2.1731561,3.8015 3.6012687,5.50218 1.9990269,2.37971 4.3229259,4.56952 6.5163499,6.83486 0.156103,0.16192 0.358588,0.29207 0.548698,0.42756 1.062704,0.75136 2.4313779,0.68331 3.0845329,-0.32872 0.568672,-0.87883 1.012424,-1.88516 1.155372,-2.87097 0.317174,-2.16294 0.362193,-4.35446 0.600049,-6.52827 0.578514,-5.28705 3.054618,-9.84362 7.6347921,-13.55358 0.895786,-0.72694 1.801415,-1.48381 2.847359,-2.03495 2.015397,-1.06216 4.217104,-1.21019 6.34836,-0.25619 0.75089,0.33602 1.385336,0.95381 1.88268,1.55521 0.609502,0.73829 0.590695,1.60752 -0.03119,2.36724 -0.591766,0.7229 -1.203411,1.45271 -1.939197,2.06931 -1.7334,1.45536 -2.627139,3.20531 -3.075471,5.19766 -0.471717,2.09668 -1.156834,4.16017 -1.647942,6.25569 -0.825044,3.52129 -1.743827,7.08775 -0.94363,10.66626 0.859829,3.84644 0.406625,7.59145 -0.400683,11.35986 -0.615835,2.86686 -1.178661,5.741 -1.856762,8.59801 -0.818514,3.44641 -0.0097,6.64139 1.78329,9.75065 2.170916,3.77088 4.271282,7.57206 6.401662,11.36081 0.06236,0.1116 0.116345,0.22866 0.201899,0.39242 z m -49.696793,-67.97429 c -0.320195,-0.6558 -0.714836,-1.29371 -0.943142,-1.97245 -0.234153,-0.69535 -0.426115,-1.43086 -0.420463,-2.14635 0.01363,-1.99412 -0.0838,-3.96851 -0.672547,-5.91146 -0.471132,-1.555606 -0.937491,-3.112936 -1.373934,-4.676616 -0.176956,-0.62684 0.11654,-1.10129 0.830889,-1.38566 0.382267,-0.15187 0.769793,-0.30747 1.119806,-0.50603 0.888575,-0.50165 1.479854,-1.19001 1.830743,-2.16329 -0.427576,0.25488 -0.705482,0.49233 -1.040975,0.60636 -0.918002,0.30871 -1.839708,0.62942 -2.796687,0.82597 -1.273765,0.26087 -1.51474,0.49242 -1.169405,1.56254 0.207065,0.64491 0.475713,1.27525 0.717564,1.91209 0.99362,2.62825 2.034302,5.247146 2.296519,8.018446 0.129695,1.37438 -0.03411,2.79213 0.311327,4.12253 0.585627,2.25999 1.432692,4.47272 2.233376,6.68874 0.757905,2.09346 1.595226,4.16529 2.399903,6.25139 -0.0097,-0.15492 -0.0097,-0.31937 -0.01949,-0.48311 -0.233959,-2.27951 -0.877468,-4.48607 -1.699003,-6.66063 -0.516346,-1.3692 -1.069818,-2.73047 -1.606237,-4.09273 0.556883,0.89781 1.326286,1.58675 2.505726,1.93843 2.551135,0.76169 4.875912,-0.64991 4.691161,-3.02204 -0.07308,0.201 -0.09646,0.27078 -0.126285,0.33811 -1.009794,2.39168 -4.239223,2.99435 -6.323999,1.18903 -0.208137,-0.17927 -0.494813,-0.29213 -0.747285,-0.43545 z m -16.916357,6.38744 c -0.18017,-0.19385 -0.328671,-0.41633 -0.543434,-0.57366 -1.666555,-1.2168 -2.390355,-2.77339 -2.491598,-4.59141 -0.123556,-2.23625 -0.418709,-4.45638 -1.264994,-6.59382 -0.728381,-1.84156 -1.556348,-3.65657 -2.292037,-5.498573 -0.5257,-1.316883 -0.397368,-1.538953 0.898321,-2.396363 1.043314,-0.6896 1.713228,-1.55825 1.752205,-2.55032 -1.0324,0.61908 -2.093838,1.29739 -3.203705,1.91383 -1.005213,0.55767 -1.219683,0.93317 -0.854276,1.88249 0.115376,0.29775 0.267869,0.58553 0.408089,0.876663 0.626748,1.300603 1.285944,2.590953 1.877906,3.901663 1.228552,2.72172 2.270988,5.48916 2.421731,8.42862 0.118393,2.35187 1.084045,4.42938 2.758784,6.31369 2.757907,3.10464 4.983097,6.47002 6.851064,10.00505 0.03995,0.0736 0.117418,0.13315 0.177442,0.19777 -0.85447,-3.45771 -2.457979,-6.62094 -4.926872,-9.46821 -0.490817,-0.56641 -0.958052,-1.14973 -1.435715,-1.72553 0.668259,0.50595 1.310793,1.05712 2.357615,0.7785 1.822656,-0.48807 2.969259,-1.50495 3.461245,-3.04322 -0.145481,0.0807 -0.251986,0.19021 -0.351669,0.30419 -0.741048,0.8481 -1.680391,1.48905 -2.839758,1.89102 -0.834008,0.28937 -1.66977,0.48714 -2.46256,-0.0975 -0.0458,-0.0333 -0.191766,0.0271 -0.292813,0.0434 z m 58.383279,25.73733 -0.07697,-0.0412 c -0.06723,0.15458 -0.154836,0.30384 -0.200244,0.46379 -1.282048,4.51462 -2.58105,9.02821 -3.832209,13.54875 -0.841218,3.03225 -0.540414,5.97669 1.046043,8.82978 1.580026,2.84456 3.564047,5.48367 5.684973,8.05577 0.657735,0.79815 1.340903,1.58359 2.029137,2.39577 0.05748,-0.0758 0.08672,-0.10054 0.07991,-0.10907 -0.138952,-0.21986 -0.275371,-0.4416 -0.424555,-0.65598 -2.25647,-3.28391 -4.485558,-6.57631 -6.244876,-10.07634 -1.120099,-2.23118 -1.431914,-4.48282 -0.825824,-6.87036 0.59167,-2.33348 1.056957,-4.69289 1.468942,-7.0555 0.492863,-2.8214 0.870061,-5.65586 1.298028,-8.48525 z m -39.795009,-16.33093 c -8.927362,-8.43206 -14.943151,-18.40508 -21.32201,-28.194596 0.307138,0.97835 0.682388,1.926226 1.092619,2.862006 1.236445,2.82792 2.758296,5.50223 5.169212,7.80913 1.066309,1.02001 1.926335,2.26348 2.556884,3.51958 1.559854,3.10771 3.385337,6.06468 5.903244,8.70951 1.911718,2.00841 4.078929,3.78817 6.597615,5.29423 z m 19.568345,39.63567 c -5.448968,-9.41627 -10.895403,-18.83238 -16.361131,-28.27813 0.26553,3.52393 11.9084123,23.7496 16.361131,28.27813 z m -32.257073,-33.08306 c -4.804973,-3.00221 -9.335841,-6.25428 -13.358352,-9.9638 -4.015886,-3.70304 -7.909384,-7.50038 -11.875283,-11.27565 0.02631,0.0789 0.03508,0.14035 0.06723,0.19108 2.17374,3.31348 4.754108,6.33421 8.378178,8.68775 1.327651,0.86289 2.468601,1.9484 3.587043,3.01019 1.785726,1.69578 3.391768,3.53121 5.242878,5.17196 2.198394,1.95248 4.906313,3.32148 7.959469,4.17644 z m 12.209801,-38.004376 -0.0838,0.0397 c 0.03508,0.18312 0.07308,0.36638 0.103391,0.5492 0.569258,3.26769 1.714009,6.344306 4.009065,9.093646 1.25106,1.49887 2.1067,3.18947 2.594399,4.97789 0.901535,3.30397 2.52083,6.34206 4.703827,9.18024 0.297102,0.388 0.591572,0.77788 0.903973,1.15664 0.292521,0.35519 0.603069,0.69927 0.906115,1.04695 0.06821,-0.13826 0.02728,-0.21184 -0.01462,-0.28152 -2.733839,-4.26028 -5.184023,-8.62552 -6.971698,-13.23755 -0.582607,-1.50335 -0.944312,-3.0605 -1.919417,-4.46341 -0.951036,-1.37098 -1.769941,-2.81127 -2.534276,-4.264546 -0.64916,-1.23689 -1.137931,-2.53122 -1.699295,-3.80145 z m -31.288889,43.153266 c -2.892571,2.08104 -2.935056,3.76228 -0.636102,4.91144 -0.804288,-1.1852 -0.622558,-2.22361 0.526578,-3.10203 0.665628,-0.50899 1.207602,-1.3569 2.465093,-0.80936 -0.779051,-0.54718 -1.552839,-1.06965 -2.424557,-1.41295 -1.551377,-0.60791 -3.202829,-1.03886 -4.739882,-1.66831 -1.734081,-0.71249 -3.358833,-1.5953 -4.537786,-2.83155 -0.31581,0.96116 -0.627527,1.90223 -0.936906,2.84549 -0.272645,0.82547 -0.04677,1.42067 0.619244,1.75567 0.42553,-0.96675 0.854471,-1.94348 1.286042,-2.92208 2.136032,2.1419 5.369846,2.42209 8.380518,3.23586 z m 33.792081,32.01435 -0.09159,0.0818 c 1.833374,1.84711 3.575933,3.76196 5.518834,5.52209 2.540123,2.3025 4.376324,4.93677 5.796447,7.80222 0.374958,0.75466 0.714447,1.52347 1.069526,2.28509 -0.585335,-2.68706 -1.397808,-5.30441 -3.160051,-7.63935 -1.797127,-2.38179 -4.20697,-4.30631 -6.658323,-6.19879 -0.813449,-0.62856 -1.650282,-1.23614 -2.476689,-1.8533 z M -49.955309,89.890416 c -0.41296,0.139846 -0.66134,0.232665 -0.915956,0.310873 -1.785727,0.537102 -2.986215,0.09061 -3.555277,-1.430212 -0.521803,-1.391893 -0.966335,-2.805559 -1.348989,-4.229766 -0.226651,-0.841303 -0.131548,-1.693745 0.828161,-2.258237 0.936419,-0.551629 1.916396,-0.504806 2.902705,-0.07939 0.215445,0.0923 0.431377,0.182573 0.818223,0.34415 -1.625823,-1.377046 -3.35211,-1.560328 -4.733645,-0.608436 -1.456275,1.002289 -1.551475,2.192302 -0.294665,3.738271 0.861291,1.060531 1.455202,2.629634 1.533643,4.090402 l -0.725555,-1.111332 -0.0877,0.03539 c 0.995373,1.985751 1.991134,3.969485 2.988943,5.955395 l 0.161851,-0.0471 c -0.502801,-1.24434 -1.005895,-2.48665 -1.504702,-3.720575 1.399172,0.651645 2.705288,0.352055 3.938126,-0.989062 z m 19.914264,-9.920224 c -0.596054,-1.007939 -1.485116,-1.60243 -2.683558,-1.932872 -2.000683,-0.551621 -3.607408,0.447703 -3.11055,2.130934 0.597516,2.034998 1.474495,4.015657 2.304703,5.999609 0.270012,0.646661 1.252327,0.976292 2.082048,0.790374 1.00346,-0.226305 1.683314,-0.815763 2.211937,-1.538385 -0.288331,0.07618 -0.529793,0.201939 -0.775932,0.321346 -1.69754,0.812866 -3.061536,0.486689 -3.683705,-1.065801 -0.518003,-1.294057 -0.857199,-2.660714 -1.054032,-4.016771 -0.196736,-1.358076 1.273667,-2.184633 2.787432,-1.650141 0.650719,0.230351 1.225726,0.60662 1.924093,0.961859 z m -14.514406,56.619278 c -2.407115,-2.46529 -4.769114,-4.80382 -7.97428,-6.49156 2.097442,0.0185 3.806969,-1.41383 3.677761,-2.9346 -0.69798,0.6026 -1.420221,1.26069 -2.18748,1.87742 -0.871621,0.69994 -1.882585,0.81598 -2.965655,0.35825 -0.454859,-0.19211 -0.892277,-0.41571 -1.338173,-0.62561 l -0.07503,0.0829 c 3.580514,2.55019 7.161027,5.10039 10.862955,7.73519 z m -18.142375,-25.72955 -0.173253,-0.0184 c -0.97374,0.67141 -1.947089,1.34081 -2.916152,2.01453 -1.061731,0.73526 -1.112011,1.12469 -0.34329,2.07187 1.689746,2.07638 3.392549,4.14339 5.028701,6.24908 0.675859,0.8704 1.198929,1.82311 1.790695,2.7393 l 0.216614,-0.0886 c -0.627333,-1.12372 -1.155567,-2.30043 -1.909673,-3.36264 -1.187723,-1.67196 -2.540123,-3.26234 -3.798978,-4.89791 -0.985434,-1.28155 -0.921512,-1.46072 0.507186,-2.39552 0.368234,-0.24219 0.74514,-0.52858 0.963606,-0.86522 0.290962,-0.44613 0.43011,-0.9624 0.634641,-1.44832 z m 12.810532,15.43166 0.140122,-0.10341 c -0.356541,-0.54409 -0.695445,-1.09527 -1.069818,-1.63028 -0.748649,-1.068 -1.851986,-1.79943 -3.218225,-2.24165 -1.337978,-0.43239 -2.616127,-0.0884 -3.036201,0.98236 -0.301486,0.76682 -0.188064,1.65013 -0.27391,2.64954 0.43966,-0.50836 0.7353,-0.86676 1.049453,-1.21388 1.365458,-1.49989 2.140903,-1.87211 4.455642,-0.33969 0.0575,0.038 0.111762,0.084 0.158539,0.1336 0.598099,0.58914 1.193569,1.17816 1.791864,1.76529 z m 12.104368,-12.69872 c -0.326723,-1.51233 -0.830597,-2.80145 -2.098125,-3.79901 -0.789476,-0.62102 -1.649696,-0.76028 -2.602974,-0.35404 -1.069331,0.45621 -1.93452,1.10975 -2.5372,1.98855 -0.07405,0.10735 -0.100758,0.23999 -0.177929,0.43057 0.702558,-0.17528 1.304263,-0.30782 1.890086,-0.47997 0.446188,-0.13173 0.86977,-0.31162 1.299587,-0.47892 1.259635,-0.49354 1.883558,-0.40308 2.698759,0.5408 0.550061,0.63913 0.969453,1.3558 1.527796,2.15202 z m 17.84196,-4.32252 c -0.212521,-1.25939 -0.597028,-2.2973 -1.941633,-2.7362 -1.202924,-0.39173 -2.470939,-0.64908 -3.716349,-0.94169 -0.19771,-0.0465 -0.456613,-0.002 -0.656954,0.0682 -0.470549,0.16078 -0.792108,0.9345 -0.586798,1.37189 0.234154,0.4981 0.70519,0.35971 1.144752,0.27639 0.363166,-0.0697 0.727114,-0.14941 1.088331,-0.22526 1.501683,-0.31424 3.084533,0.1817 3.948164,1.24035 0.224312,0.27379 0.428063,0.5606 0.720487,0.94629 z m -34.182044,28.59548 c 2.800198,1.90331 5.794207,3.47663 9.380372,4.09527 -3.094472,-1.42077 -5.887652,-3.32363 -9.380372,-4.09527 z m 78.451697,-25.43095 c -3.890672,-0.0716 -6.07786,2.11085 -4.789188,4.69992 0.113424,-2.5636 2.371549,-3.62132 4.789188,-4.69992 z m -97.112075,-6.5668 c -0.427478,-0.82088 -0.905334,-1.537 -1.17447,-2.30564 -0.443167,-1.25905 0.35888,-2.30887 1.834739,-2.54941 0.290768,-0.0476 0.597711,-0.0291 0.899976,-0.0414 -0.834885,-0.34922 -1.688284,-0.62431 -2.547139,-0.15545 -0.851548,0.46525 -1.022753,1.21347 -0.949185,1.99676 0.113517,1.22292 0.801267,2.20996 1.935885,3.05715 z m 89.954944,19.39673 c -1.84575,1.85937 -2.742218,5.41906 -1.76614,6.75493 0.225579,-1.09878 0.412961,-2.26087 0.710548,-3.40412 0.296615,-1.13315 0.703046,-2.24545 1.055592,-3.35081 z m -73.158147,18.679 c 1.263727,-0.0337 2.454081,-0.25889 3.12117,-1.26398 0.499782,-0.75487 0.297199,-1.53577 -0.152593,-2.29494 -0.01852,1.76204 -1.113181,2.86131 -2.96848,3.5569 z M -72.44312,127.3449 c -0.539439,-0.28058 -1.056565,-0.59643 -1.621145,-0.83787 -1.422559,-0.60829 -2.797858,0.0735 -2.922584,1.52406 1.280195,-1.6372 2.876688,-1.16077 4.541294,-0.68632 z m 4.653061,-20.2142 c -1.518247,0.90298 -2.471232,0.99404 -4.262414,-0.38279 0.543629,0.68551 0.956006,1.54006 2.093546,1.6472 1.074787,0.10135 1.701925,-0.52384 2.169063,-1.26643 z m 85.726926,16.94785 c -2.161171,0.24197 -3.139295,0.7667 -3.017298,1.58137 1.308747,-0.0492 2.025629,-0.87038 3.017298,-1.58137 z M -31.42677,90.91892 c -0.442777,-1.576248 -0.968868,-3.114827 -2.272157,-4.372804 0.756638,1.456875 1.515616,2.913911 2.272157,4.372804 z m -39.938249,17.07425 -0.248088,0.17217 c 1.020513,1.07215 2.041025,2.14431 3.06144,3.21849 l 0.216516,-0.14355 c -1.010086,-1.08169 -2.017638,-2.16323 -3.027529,-3.24695 z m 0.864702,25.40885 c -0.933203,-0.27789 -1.887747,-0.56313 -2.806822,-0.83811 1.096906,1.22928 1.787187,1.42338 2.806822,0.83811 z"
           id="path1"
           style="fill:#003c8d;fill-opacity:1;stroke:none;stroke-width:1.08861;stroke-dasharray:none;stroke-opacity:1" /></g></g></g></svg>
