<?xml version="1.0" encoding="UTF-8" standalone="no"?>
<!-- Created with Inkscape (http://www.inkscape.org/) -->

<svg
   width="182"
   height="186"
   viewBox="0 0 182 186"
   version="1.1"
   id="svg1"
   xml:space="preserve"
   inkscape:version="1.4 (e7c3feb100, 2024-10-09)"
   sodipodi:docname="Comunica.svg"
   xmlns:inkscape="http://www.inkscape.org/namespaces/inkscape"
   xmlns:sodipodi="http://sodipodi.sourceforge.net/DTD/sodipodi-0.dtd"
   xmlns="http://www.w3.org/2000/svg"
   xmlns:svg="http://www.w3.org/2000/svg"><sodipodi:namedview
     id="namedview1"
     pagecolor="#ffffff"
     bordercolor="#000000"
     borderopacity="0"
     inkscape:showpageshadow="2"
     inkscape:pageopacity="0.0"
     inkscape:pagecheckerboard="0"
     inkscape:deskcolor="#d1d1d1"
     inkscape:document-units="px"
     inkscape:zoom="2.9467112"
     inkscape:cx="29.35476"
     inkscape:cy="118.94617"
     inkscape:window-width="1920"
     inkscape:window-height="1048"
     inkscape:window-x="0"
     inkscape:window-y="0"
     inkscape:window-maximized="1"
     inkscape:current-layer="g5" /><defs
     id="defs1"><filter
       inkscape:collect="always"
       style="color-interpolation-filters:sRGB"
       id="filter2"
       x="-0.0020660159"
       y="-0.0020969675"
       width="1.004132"
       height="1.0041939"><feGaussianBlur
         inkscape:collect="always"
         stdDeviation="0.36386053"
         id="feGaussianBlur2" /></filter></defs><g
     inkscape:label="Layer 1"
     inkscape:groupmode="layer"
     id="layer1"><g
       id="g5"
       transform="translate(2.3755298,-7.4659505)"><rect
         style="mix-blend-mode:normal;fill:#192c39;fill-opacity:1;stroke:none;stroke-width:6.98183;stroke-dasharray:none;stroke-opacity:1;filter:url(#filter2)"
         id="rect1"
         width="422.68079"
         height="416.44196"
         x="1213.4524"
         y="116.97807"
         ry="81.490753"
         rx="92.022751"
         transform="matrix(0.42136483,0,0,0.43817259,-511.34927,-41.640081)" /><rect
         style="mix-blend-mode:normal;fill:#c9c9c9;fill-opacity:1;stroke:none;stroke-width:0;stroke-dasharray:none;stroke-opacity:1;filter:url(#filter2)"
         id="rect2"
         width="422.68079"
         height="416.44196"
         x="1213.4524"
         y="116.97807"
         ry="81.490753"
         rx="92.022751"
         transform="matrix(0.40659356,0,0,0.42323048,-490.79404,-36.617331)" /><path
         d="m 153.76878,137.30407 c -2.6551,0.98018 -5.2767,1.85998 -7.8161,2.91738 -1.826,0.76231 -3.5637,1.72839 -5.3054,2.66735 -1.2566,0.67893 -2.4291,1.50328 -3.6897,2.1734 -0.4228,0.22358 -1.0514,0.34467 -1.4974,0.21955 -1.964,-0.55636 -3.5143,-0.0189 -4.8705,1.38163 -1.6546,1.7085 -3.3334,3.39305 -5.0493,5.04335 -1.8574,1.78792 -4.0543,3.12621 -6.423,4.17774 -4.5815,2.03291 -9.3508,3.5738 -14.1411,5.07376 -1.511,0.47379 -2.9822,1.22397 -4.3019,2.08886 -2.105999,1.38404 -4.425799,2.0542 -6.858399,2.59346 -3.7437,0.83018 -7.3559,2.02673 -10.557,4.16619 -0.3522,0.23598 -0.6498,0.55126 -1.0021,0.78726 -0.2271,0.1524 -0.5261,0.35574 -0.7651,0.32458 -1.3292,-0.16725 -2.1161,0.55631 -2.801,1.48328 -1.045,1.41211 -2.4399,2.34499 -4.1502,2.85751 -0.8955,0.26915 -1.8108,0.49423 -2.6737,0.83612 -1.8774,0.74446 -3.6251,1.67024 -5.0161,3.17449 -0.4669,0.50629 -1.2112,0.81691 -1.883,1.08951 -1.7292,0.70619 -3.4615,1.42408 -5.2465,1.97563 -1.2657,0.39227 -2.6122,0.56187 -3.9347,0.74245 -0.5029,0.0686 -1.0594,-0.0548 -1.5605,-0.19369 -1.7256,-0.47792 -2.4094,-2.00562 -1.6438,-3.5758 0.6189,-1.26831 1.7079,-2.1101 2.8518,-2.88329 1.434,-0.97271 2.8551,-1.97411 4.3708,-2.81875 0.8562,-0.47777 1.8694,-0.72017 2.8394,-0.96809 1.9987,-0.50992 3.5484,-1.71415 5.0936,-2.93476 1.1985,-0.94775 2.2583,-1.99977 2.9535,-3.37045 0.3997,-0.78955 1.2597,-1.02299 2.0243,-1.36048 0.5384,-0.23784 1.0712,-0.51247 1.5618,-0.83247 1.8671,-1.22157 3.7188,-2.4655 5.5714,-3.7072 0.3339,-0.22301 0.6883,-0.4417 0.9564,-0.72631 0.2054,-0.21914 0.4719,-0.61034 0.3926,-0.79964 -0.1214,-0.28941 -0.4954,-0.62254 -0.8047,-0.6661 -0.5525,-0.0781 -1.1565,-0.0354 -1.696,0.10881 -0.5543,0.14768 -0.8041,-0.0594 -1.0374,-0.45906 -0.9768,-1.68008 -1.9559,-3.3592 -3.0425,-5.22374 0.023,0.35407 0.021,0.51961 0.045,0.68006 0.2203,1.60607 0.4284,3.21461 0.6846,4.81614 0.062,0.38735 -0.026,0.60208 -0.3626,0.78187 -2.0588,1.10802 -4.1127,2.22701 -6.1696,3.33943 -0.5864,0.31807 -1.1955,0.60369 -1.7707,0.94061 -1.1525,0.66951 -1.4574,0.66599 -2.5172,-0.0978 -0.1241,-0.0895 -0.2638,-0.1594 -0.4392,-0.26674 0.2532,1.52177 0.071,1.6314 -1.179,2.54086 -1.6765,1.21786 -3.6269,1.50876 -5.5661,1.93367 -3.1169,0.68105 -6.0382,1.88999 -8.9284,3.18024 -0.043,0.0182 -0.091,0.0381 -0.1254,0.0707 -2.698,2.31924 -6.1144,3.03902 -9.4466,3.89887 -1.9357,0.49932 -3.9134,0.43272 -5.8042,-0.3112 -2.3635,-0.92851 -2.8982,-3.01294 -1.3084,-4.95076 0.9671,-1.18074 2.2833,-1.90808 3.616,-2.5926 1.7792,-0.91545 3.5713,-1.8205 5.4097,-2.62194 1.2672,-0.55251 2.6999,-0.77123 3.9208,-1.39077 3.465,-1.75521 6.939,-3.50887 9.9565,-5.97981 0.9282,-0.75899 2.0051,-1.35507 3.0414,-1.98131 0.3566,-0.21424 0.8031,-0.28812 1.2088,-0.4287 0.2045,-0.0697 0.4565,-0.0937 0.5988,-0.22382 0.7824,-0.72163 1.8071,-0.91395 2.7569,-1.2974 1.2625,-0.50867 2.4459,-1.19367 3.6968,-1.73413 1.5365,-0.66497 3.1046,-1.25938 4.6568,-1.88901 0.8828,-0.35806 0.9372,-0.72087 0.3022,-1.37677 -0.3351,-0.34937 -0.6069,-0.77487 -0.8329,-1.20118 -0.3154,-0.5957 -0.5611,-1.22313 -0.931,-2.04981 -0.3973,0.95858 -0.7469,1.70887 -1.0167,2.48611 -0.1482,0.42551 -0.3956,0.65962 -0.8243,0.77317 -3.3612,0.87979 -6.7225,1.76494 -10.0836,2.64478 -0.064,0.0159 -0.1389,-0.008 -0.3431,-0.0215 0.2106,-0.4254 0.3971,-0.80156 0.6164,-1.24368 -0.9263,0.61171 -1.7445,1.25936 -2.6582,1.72973 -1.6897,0.86756 -3.4412,1.47574 -5.4514,1.16109 -1.71,-0.26733 -3.3842,0.217 -5.0384,0.60668 -1.7717,0.41781 -3.5587,0.80787 -5.2937,1.34382 -1.2997,0.40124 -2.4943,1.1276 -3.7996,1.51024 -3.1308,0.92231 -6.3382,1.49199 -9.6364,1.41673 -0.3116,-0.006 -0.6239,-0.0562 -0.931,-0.10065 -1.4912,-0.21468 -2.7238,-0.76504 -3.2159,-2.29425 -0.4815,-1.4996 -0.082,-2.80981 0.9709,-3.93213 1.2105,-1.29023 2.7927,-2.05278 4.4533,-2.62821 2.58,-0.89388 5.1831,-1.7241 7.7895,-2.53479 0.3924,-0.12195 0.8686,0.003 1.2356,0.0127 0.2841,-0.19448 0.5699,-0.49428 0.9218,-0.60982 1.9148,-0.61878 3.8931,-1.08353 5.7596,-1.81034 2.247,-0.8752 4.4159,-1.94285 6.6014,-2.96766 1.3577,-0.63476 2.7483,-1.03217 4.2668,-1.15056 0.8357,-0.0637 1.6379,-0.47446 2.4697,-0.68037 3.3501,-0.82553 6.707,-1.63026 10.0601,-2.44919 0.279,-0.0667 0.5526,-0.15744 0.8234,-0.25473 0.5593,-0.19688 0.8223,-0.58397 0.6285,-1.14408 -0.4404,-1.26826 -0.9113,-2.52635 -1.5466,-3.79434 -0.2328,0.52101 -0.4972,1.03172 -0.6918,1.56556 -0.2279,0.62884 -0.6543,0.93507 -1.3307,0.97935 -1.3621,0.0924 -2.7254,0.18793 -4.0827,0.31499 -1.355,0.1261 -2.7056,0.31053 -4.0633,0.42467 -0.206,0.0179 -0.5406,-0.1485 -0.6365,-0.32038 -0.3258,-0.58873 -0.5712,-1.22152 -0.8465,-1.83657 l -0.1916,0.0198 c -0.2072,0.52347 -0.4188,1.04348 -0.6206,1.56725 -0.2463,0.64183 -0.66,1.07353 -1.4218,1.07232 -1.0025,-1.3e-4 -2.0177,0.0862 -3.0059,-0.0272 -2.9323,-0.33523 -5.8457,-0.32525 -8.7292,0.32639 -0.9547,0.2154 -1.8501,0.67819 -2.802,0.90021 -3.2629,0.76032 -6.5738,1.23192 -9.8931,0.4617 -2.7842,-0.64568 -3.4922,-3.08685 -1.62,-5.18701 1.1647,-1.30777 2.7572,-1.9385 4.3905,-2.42936 2.9122,-0.87813 5.8448,-1.70462 8.788,-2.48321 1.2453,-0.32887 2.5636,-0.39779 3.8109,-0.72223 2.0613,-0.53343 4.0956,-1.17592 6.1374,-1.77711 0.5745,-0.16916 1.1364,-0.39065 1.7187,-0.52388 0.7837,-0.18052 1.5807,-0.26996 2.0662,0.21549 0.6267,-0.16745 1.0891,-0.36308 1.5687,-0.4115 3.4104,-0.34577 6.825,-0.64613 10.234,-1.00166 0.6834,-0.0708 1.3906,-0.22208 2.0176,-0.49168 2.5026,-1.07873 5.1768,-1.57493 7.8006,-2.24376 1.9285,-0.49111 3.8475,-1.02788 5.7536,-1.59335 0.4929,-0.14559 0.9554,-0.43804 1.3779,-0.73478 1.0833,-0.76356 2.1478,-1.55071 3.1895,-2.36491 0.2729,-0.21336 0.677,-0.69075 0.6009,-0.81856 -0.1836,-0.3132 -0.5879,-0.64152 -0.9447,-0.69407 -0.772,-0.11466 -1.5759,-0.11921 -2.3588,-0.0645 -1.5768,0.1088 -3.1474,0.28567 -4.8398,0.44529 0.3592,-0.93483 0.6872,-1.79388 1.0161,-2.65069 l -0.068,-0.0423 c -0.7235,0.85927 -1.4288,1.7346 -2.1811,2.57188 -0.2047,0.22673 -0.5376,0.47559 -0.8224,0.48717 -2.7969,0.11843 -5.5975,0.16249 -8.2056,-1.046 -3.6829,-1.70947 -7.1597,-3.70907 -9.8078,-6.81075 -0.8659,-1.01471 -1.5676,-2.11632 -1.792,-3.44073 -0.3907,-2.301491 1.2816,-3.776641 3.5888,-3.107151 1.124,0.32616 2.2136,0.78708 3.2972,1.234791 3.0557,1.26482 6.1704,2.11006 9.5319,1.35829 0.2561,-0.0572 0.5283,-0.0845 0.7688,-0.177 1.3397,-0.51741 2.6216,-0.24407 4.0009,-0.002 2.374,0.41923 4.8067,0.63078 7.2189,0.67557 1.065,0.0187 2.1514,-0.56839 3.2162,-0.91343 1.7741,-0.57576 3.5292,-1.20637 5.309,-1.763571 1.1378,-0.35723 2.2367,-0.0206 3.3089,0.35336 4.620799,1.613651 9.230499,3.263261 13.864299,4.845341 4.0417,1.37917 8.1097,2.68984 12.1676,4.02042 2.1108,0.69122 4.1765,0.27634 6.2352,-0.26909 2.4567,-0.64878 4.9332,-1.23517 7.3626,-1.96935 1.3456,-0.40736 2.6086,-1.06013 3.9622,-1.62521 l 14.5369,32.47841 z m -62.092799,-2.28417 -0.082,0.11283 c 1.1732,0.78706 2.3314,1.60127 3.5301,2.34884 0.556,0.34616 1.1746,0.64515 1.8072,0.82329 2.4914,0.69986 5.014499,1.29492 7.492999,2.02635 1.3483,0.39737 2.6518,0.50732 4.0173,0.18062 0.7611,-0.18172 1.5455,-0.28152 2.3187,-0.4185 -0.2807,-0.12303 -0.5411,-0.11946 -0.8028,-0.12278 -0.9819,-0.009 -1.9909,0.12203 -2.9386,-0.0528 -3.3045,-0.60374 -6.5891,-1.30218 -9.874899,-1.99743 -0.5029,-0.10667 -0.9951,-0.34074 -1.4462,-0.59197 -1.3514,-0.74934 -2.6826,-1.53842 -4.0226,-2.31078 z m -2.3101,24.71556 0.075,-0.0939 c -0.76,-1.03806 -1.4906,-2.10141 -2.2981,-3.10651 -0.3511,-0.43949 -0.8375,-0.79375 -1.3026,-1.13072 -0.6051,-0.4381 -1.4641,-0.68653 -1.8461,-1.24921 -1.2213,-1.80297 -2.5554,-3.5668 -3.3066,-5.64457 0.2115,0.87192 0.4364,1.74349 0.7395,2.59025 0.2725,0.7601 0.4734,1.62073 0.9902,2.20034 0.7667,0.86522 1.741,1.58351 2.7094,2.25197 0.9608,0.66375 1.8812,1.33395 2.5833,2.27314 0.5014,0.6724 1.0993,1.27577 1.6542,1.91015 z m -10.8363,8.56582 c -1.1391,-1.9158 -1.9562,-2.31258 -3.7141,-1.86393 0.3516,0.489 0.6922,0.9591 1.0303,1.43015 l 0.093,-0.0466 -0.1348,-0.90653 c 0.9198,0.46896 1.7584,0.89597 2.7258,1.38692 z m -18.5639,-12.17945 -0.081,0.12259 c 0.5536,0.5956 1.1791,1.14559 1.6435,1.80203 0.4595,0.65073 0.76,1.40698 1.129,2.11634 -0.084,-0.98771 -0.2774,-1.95114 -0.4871,-2.91012 -0.021,-0.0982 -0.1203,-0.21409 -0.2135,-0.2589 -0.6576,-0.30106 -1.3257,-0.58135 -1.9893,-0.87238 z m 36.7091,-16.27099 c 1.3574,1.43484 5.528999,3.69126 6.958799,3.85315 -2.3704,-1.31293 -4.664099,-2.58195 -6.958799,-3.85315 z m -42.4246,5.61966 0.1473,0.0144 c -0.2329,-0.71388 -0.4624,-1.42649 -0.7246,-2.23016 0.3998,0.11831 0.6868,0.20259 0.9747,0.28908 l 0.07,-0.11562 c -0.6393,-0.48404 -1.2762,-0.96902 -1.9155,-1.45306 l -0.083,0.074 1.5303,3.41915 z m 44.8041,-0.15838 -0.1392,0.20981 c 1.215799,0.76138 2.431699,1.52277 3.648599,2.28633 l 0.1147,-0.17345 c -1.2084,-0.77495 -2.4168,-1.54992 -3.626399,-2.32174 z m -46.9277,-17.86613 c 0.1362,0.70972 0.2586,1.3467 0.3962,2.07157 q 0.5062,-1.49594 -0.3962,-2.07157 z"
         id="path1-2"
         style="fill:#a4c2d6;fill-opacity:1;stroke:none;stroke-width:1.2;stroke-dasharray:none;stroke-opacity:1" /><path
         d="m 151.91698,137.42004 c -11.7565,3.56044 -23.493,7.11746 -35.3107,10.69532 -0.1302,-0.3606 -0.2406,-0.65236 -0.3382,-0.94807 -1.2214,-3.65088 -3.0361,-7.03709 -5.0374,-10.32799 -1.1701,-1.92812 -3.1853,-3.05776 -4.9379,-4.43158 -3.0458,-2.3883 -6.2281,-4.65125 -9.017799,-7.29867 -2.4053,-2.28359 -4.356,-5.01475 -6.4769,-7.56994 -2.9606,-3.56462 -5.9002,-7.14462 -8.8343,-10.73147 -0.4592,-0.56163 -0.9851,-1.13271 -1.2231,-1.7873 -0.7427,-2.04527 -2.2235,-3.4532 -4.0735,-4.4895 -1.8979,-1.063711 -3.8504,-2.063781 -5.8712,-2.883211 -1.6433,-0.66557 -3.093,-1.52235 -4.3584,-2.70824 -2.1303,-1.99242 -4.435,-3.75375 -7.1127,-5.02574 -2.4055,-1.14472 -4.3054,-2.95016 -6.282,-4.63092 -1.5193,-1.29262 -2.9239,-2.71933 -4.3136,-4.14501 -0.7691,-0.78782 -1.1928,-1.76112 -1.2333,-2.88838 -0.088,-2.43797 2.0768,-4.01637 4.7583,-3.29551 1.3077,0.35092 2.2183,1.28099 3.2252,2.08775 2.9649,2.37064 5.9654,4.69561 8.9579,7.03205 1.4113,1.10212 2.9652,1.93003 4.7492,2.34775 1.6713,0.39063 3.3063,0.89912 4.7521,1.83991 0.9157,0.59334 1.795,1.23954 2.7247,1.81219 1.7904,1.10197 3.5943,2.18804 5.4185,3.23699 0.5284,0.30398 1.194,0.7066 1.7531,0.12904 0.5511,-0.57087 0.3866,-1.34076 -0.046,-1.862 -1.007,-1.20886 -2.0516,-2.41312 -3.2299,-3.46534 -3.1487,-2.81441 -6.3837,-5.5409 -9.5702,-8.31701 -1.5124,-1.31862 -2.5174,-2.98965 -3.4665,-4.70496 -2.1055,-3.79895 -4.5691,-7.37717 -7.5333,-10.59291 -2.879,-3.12072 -5.1069,-6.64886 -7.2659,-10.23001 -0.8255,-1.36961 -1.6689,-2.73324 -2.3728,-4.16183 -0.5914,-1.19684 -0.8403,-2.50714 -0.4945,-3.83629 0.4268,-1.64378 2.1126,-2.82202 3.8774,-2.84867 1.5175,-0.0221 2.7847,0.5041 3.7484,1.59198 3.0242,3.41494 6.0903,6.80148 8.3289,10.78785 1.9171,3.41505 4.0621,6.68461 6.8717,9.49954 1.8539,1.85522 3.7639,3.65896 5.5724,5.55437 1.8986,1.99075 3.6476,4.11558 5.5754,6.08188 1.534,1.56572 3.2364,2.977 4.8692,4.45328 0.1657,0.15117 0.3571,0.32579 0.5653,0.37639 0.3183,0.0774 0.7784,0.19373 0.969,0.0456 0.2304,-0.18143 0.4146,-0.67908 0.3217,-0.93836 -0.455,-1.25478 -0.8798,-2.54839 -1.5546,-3.69565 -2.1044,-3.57977 -4.2868,-7.11678 -6.4953,-10.63636 -1.8234,-2.90049 -3.1722,-5.94618 -3.9636,-9.2782 -1.4938,-6.28703 -3.9728,-12.26692 -6.4855,-18.22989 -1.5042,-3.56936 -3.2235,-7.06456 -4.1512,-10.84187 -0.2815,-1.14159 -0.545,-2.28916 -0.2166,-3.45098 0.6404,-2.27181 2.4719,-3.22804 4.6516,-3.5702 2.1164,-0.32968 3.4112,0.9642 4.3764,2.56505 2.5897,4.29488 4.713,8.79093 6.4329,13.48286 1.4628,3.99025 2.7795,8.10278 4.8633,11.79186 3.0042,5.32054 5.3163,10.96617 8.4853,16.18498 1.6079,2.64715 3.512399,5.1271 5.315599,7.6626 0.264,0.3723 0.5705,0.90887 1.2221,0.66281 0.6389,-0.24214 0.7797,-0.82708 0.6731,-1.36903 -0.2803,-1.42563 -0.5262,-2.87776 -1.0153,-4.24328 -0.844,-2.36049 -1.8232,-4.67742 -2.807899,-6.98752 -1.5256,-3.58289 -2.6064,-7.24802 -2.4964,-11.16751 0.081,-2.92228 -0.7508,-5.68403 -1.672,-8.41347 -1.8285,-5.40737 -3.7692,-10.78161 -5.5544,-16.20282 -0.4819,-1.46372 -0.7828,-3.0449 -0.806,-4.57546 -0.034,-2.26085 1.5733,-3.48072 3.9091,-3.40751 2.7434,0.0871 4.318,1.5762 5.6133,3.76821 3.535399,5.9859 5.551399,12.49462 7.391899,19.08023 0.6713,2.40148 1.5527,4.72607 2.8608,6.87805 1.5836,2.60452 2.2847,5.5089 3.0861,8.37448 1.4565,5.21299 3.4268,10.2233 6.1359,14.95509 1.2421,2.16905 2.2302,4.50105 3.6958,6.51469 2.0515,2.81762 4.4364,5.4104 6.6874,8.09261 0.1602,0.19172 0.368,0.34582 0.5631,0.50624 1.0906,0.88963 2.4952,0.80906 3.1655,-0.38921 0.5836,-1.04055 1.039,-2.23207 1.1857,-3.39929 0.3255,-2.56096 0.3717,-5.15576 0.6158,-7.7296 0.5937,-6.25998 3.1348,-11.65505 7.8352,-16.04772 0.9193,-0.86072 1.8487,-1.75686 2.9221,-2.40943 2.0683,-1.25761 4.3278,-1.43288 6.515,-0.30333 0.7706,0.39786 1.4217,1.12933 1.9321,1.8414 0.6255,0.87416 0.6062,1.90334 -0.032,2.80287 -0.6073,0.85592 -1.235,1.72004 -1.9901,2.4501 -1.7789,1.72318 -2.6961,3.79515 -3.1562,6.15414 -0.4841,2.48251 -1.1872,4.92573 -1.6912,7.40686 -0.8467,4.16928 -1.7896,8.39205 -0.9684,12.62907 0.8824,4.55427 0.4173,8.98844 -0.4112,13.450311 -0.632,3.39443 -1.2096,6.79746 -1.9055,10.18023 -0.84,4.08062 -0.01,7.86354 1.8301,11.54496 2.2279,4.4648 4.3834,8.96548 6.5697,13.45144 0.064,0.13213 0.1194,0.27074 0.2072,0.46463 z m -51.0013,-80.482971 c -0.3286,-0.77648 -0.7336,-1.53178 -0.967899,-2.33542 -0.2403,-0.82331 -0.4373,-1.69417 -0.4315,-2.54132 0.014,-2.36108 -0.086,-4.6988 -0.6902,-6.99929 -0.4835,-1.84186 -0.9621,-3.68578 -1.41,-5.53721 -0.1816,-0.74219 0.1196,-1.30394 0.8527,-1.64065 0.3923,-0.17981 0.79,-0.36405 1.1492,-0.59915 0.911899,-0.59396 1.518699,-1.40899 1.878799,-2.56137 -0.4388,0.30178 -0.724,0.58293 -1.0683,0.71794 -0.942099,0.36552 -1.887999,0.74524 -2.870099,0.97796 -1.3072,0.30888 -1.5545,0.58304 -1.2001,1.85008 0.2125,0.76359 0.4882,1.50993 0.7364,2.26396 1.0197,3.1119 2.0877,6.21272 2.3568,9.494 0.1331,1.62729 -0.035,3.30593 0.3195,4.88115 0.600999,2.67589 1.470299,5.2958 2.291999,7.91962 0.7778,2.4787 1.6371,4.93178 2.4629,7.40177 -0.01,-0.18343 -0.01,-0.37814 -0.02,-0.57201 -0.2401,-2.69899 -0.9005,-5.3116 -1.7436,-7.88633 -0.5299,-1.62116 -1.0979,-3.23293 -1.6484,-4.84588 0.5715,1.06303 1.3611,1.87875 2.5715,2.29515 2.6181,0.90185 5.0039,-0.76951 4.8143,-3.57816 -0.075,0.23798 -0.099,0.32061 -0.1296,0.40033 -1.0363,2.8318 -4.3505,3.54537 -6.49,1.40784 -0.2136,-0.21227 -0.5078,-0.34589 -0.7669,-0.51559 z m -17.360399,7.56287 c -0.1849,-0.22953 -0.3373,-0.49295 -0.5577,-0.67923 -1.7103,-1.44072 -2.4531,-3.28375 -2.557,-5.43632 -0.1268,-2.64777 -0.4297,-5.27645 -1.2982,-7.80723 -0.7475,-2.18044 -1.5972,-4.32945 -2.3522,-6.51041 -0.5395,-1.55922 -0.4078,-1.82215 0.9219,-2.83734 1.0707,-0.8165 1.7582,-1.84501 1.7982,-3.01964 -1.0595,0.73301 -2.1488,1.53614 -3.2878,2.26602 -1.0316,0.66029 -1.2517,1.10489 -0.8767,2.2289 0.1184,0.35255 0.2749,0.69329 0.4188,1.03799 0.6432,1.53994 1.3197,3.06774 1.9272,4.61964 1.2608,3.22258 2.3306,6.49928 2.4853,9.97967 0.1215,2.78466 1.1125,5.24447 2.8312,7.47554 2.8303,3.67595 5.1139,7.66063 7.0309,11.84618 0.041,0.0871 0.1205,0.15765 0.1821,0.23416 -0.8769,-4.094 -2.5225,-7.83932 -5.0562,-11.21055 -0.5037,-0.67064 -0.9832,-1.3613 -1.4734,-2.04306 0.6858,0.59905 1.3452,1.25165 2.4195,0.92176 1.8705,-0.57789 3.0472,-1.7819 3.5521,-3.60324 -0.1493,0.0956 -0.2586,0.22521 -0.3609,0.36017 -0.7605,1.00417 -1.7245,1.76307 -2.9143,2.239 -0.8559,0.34263 -1.7136,0.57679 -2.5272,-0.11541 -0.047,-0.0394 -0.1968,0.0321 -0.3005,0.0514 z m 59.915799,30.47352 -0.079,-0.0488 c -0.069,0.18302 -0.1589,0.35975 -0.2055,0.54914 -1.3157,5.345401 -2.6488,10.689581 -3.9328,16.042001 -0.8633,3.59024 -0.5546,7.07652 1.0735,10.45464 1.6215,3.36802 3.6576,6.49277 5.8342,9.53819 0.675,0.94503 1.3761,1.87501 2.0824,2.83664 0.059,-0.0898 0.089,-0.11904 0.082,-0.12914 -0.1426,-0.26031 -0.2826,-0.52286 -0.4357,-0.77669 -2.3157,-3.88822 -4.6033,-7.78648 -6.4088,-11.93059 -1.1495,-2.64177 -1.4695,-5.30776 -0.8475,-8.13465 0.6072,-2.76289 1.0847,-5.55648 1.5075,-8.35386 0.5058,-3.34059 0.8929,-6.696651 1.3321,-10.046711 z m -40.8396,-19.33615 c -9.161699,-9.98373 -15.335399,-21.792 -21.881699,-33.38298 0.3152,1.15838 0.7003,2.28068 1.1213,3.38866 1.2689,3.34832 2.8307,6.51476 5.3049,9.24618 1.0943,1.20771 1.9769,2.68001 2.624,4.16726 1.6008,3.67959 3.4742,7.1807 6.0582,10.31223 1.9619,2.378 4.185999,4.48528 6.770799,6.26848 z m 20.082,46.929451 c -5.592,-11.14906 -11.1814,-22.29793 -16.7906,-33.481891 0.2725,4.1724 12.221,28.120011 16.7906,33.481891 z M 89.609681,83.395729 c -4.9311,-3.55467 -9.5809,-7.40519 -13.709,-11.79734 -4.1213,-4.38448 -8.117,-8.8806 -12.187,-13.3506 0.027,0.0934 0.036,0.16617 0.069,0.22624 2.2308,3.92323 4.8789,7.49984 8.5981,10.28648 1.3625,1.02167 2.5334,2.30694 3.6812,3.56412 1.8326,2.00784 3.4808,4.18103 5.3805,6.12371 2.2561,2.31177 5.0351,3.9327 8.1684,4.94499 z m 12.530299,-44.99796 -0.086,0.047 c 0.036,0.21681 0.075,0.4338 0.1061,0.65026 0.5842,3.86901 1.759,7.51178 4.1143,10.76706 1.2839,1.77469 2.162,3.77639 2.6625,5.89392 0.9252,3.91197 2.587,7.50913 4.8273,10.8696 0.3049,0.4594 0.6071,0.92102 0.9277,1.36948 0.3002,0.42056 0.6189,0.82796 0.9299,1.23961 0.07,-0.1637 0.028,-0.25082 -0.015,-0.33332 -2.8056,-5.04426 -5.3201,-10.21279 -7.1547,-15.67354 -0.5979,-1.77999 -0.9691,-3.62369 -1.9698,-5.28477 -0.976,-1.62327 -1.8164,-3.3286 -2.6008,-5.0493 -0.6662,-1.4645 -1.1678,-2.99701 -1.7439,-4.50099 z m -32.110199,51.09436 c -2.9685,2.46399 -3.0121,4.45461 -0.6528,5.81524 -0.8254,-1.4033 -0.6389,-2.6328 0.5404,-3.67287 0.6831,-0.60265 1.2393,-1.60659 2.5298,-0.9583 -0.7995,-0.64787 -1.5936,-1.26648 -2.4882,-1.67296 -1.5921,-0.71978 -3.2869,-1.23003 -4.8643,-1.97531 -1.7796,-0.8436 -3.447,-1.88887 -4.6569,-3.35261 -0.3241,1.13803 -0.644,2.25228 -0.9615,3.36911 -0.2798,0.97738 -0.048,1.68211 0.6355,2.07875 0.4367,-1.14465 0.8769,-2.30112 1.3198,-3.4598 2.1921,2.53606 5.5108,2.8678 8.6005,3.83132 z m 34.679099,37.905641 -0.094,0.0969 c 1.8815,2.18702 3.6698,4.45424 5.6637,6.53827 2.6068,2.72621 4.4912,5.84524 5.9486,9.23799 0.3848,0.89354 0.7332,1.80382 1.0976,2.70559 -0.6007,-3.18153 -1.4345,-6.28052 -3.243,-9.04514 -1.8443,-2.82009 -4.3174,-5.09876 -6.8331,-7.3395 -0.8348,-0.74422 -1.6936,-1.46361 -2.5417,-2.19434 z M 76.338681,32.557379 c -0.4238,0.16558 -0.6787,0.27548 -0.94,0.36808 -1.8326,0.63594 -3.0646,0.10729 -3.6486,-1.6934 -0.5355,-1.64803 -0.9917,-3.32184 -1.3844,-5.00813 -0.2326,-0.99612 -0.135,-2.00543 0.8499,-2.6738 0.961,-0.65314 1.9667,-0.5977 2.9789,-0.094 0.2211,0.10928 0.4427,0.21617 0.8397,0.40748 -1.6685,-1.63045 -3.4401,-1.84746 -4.8579,-0.7204 -1.4945,1.18673 -1.5922,2.59573 -0.3024,4.42619 0.8839,1.25569 1.4934,3.11354 1.5739,4.84312 l -0.7446,-1.31584 -0.09,0.0419 c 1.0215,2.35117 2.0434,4.69995 3.0674,7.05131 l 0.1661,-0.0558 c -0.516,-1.47332 -1.0323,-2.94424 -1.5442,-4.40524 1.4359,0.77156 2.7763,0.41684 4.0415,-1.17107 z m 20.437,-11.74575 c -0.6117,-1.19342 -1.5241,-1.89731 -2.754,-2.28856 -2.0532,-0.65313 -3.7021,0.53009 -3.1922,2.52307 0.6132,2.40948 1.5132,4.75462 2.3652,7.10366 0.2771,0.76566 1.2852,1.15595 2.1367,0.93582 1.0298,-0.26795 1.7275,-0.96588 2.27,-1.82148 -0.2959,0.0902 -0.5437,0.2391 -0.7963,0.38048 -1.7421,0.96245 -3.1419,0.57625 -3.7804,-1.26193 -0.5316,-1.53219 -0.8797,-3.15034 -1.0817,-4.75594 -0.2019,-1.60799 1.3071,-2.58665 2.8606,-1.9538 0.6678,0.27274 1.2579,0.71825 1.9746,1.13886 z m -14.8954,67.03839 c -2.4703,-2.91896 -4.8943,-5.68782 -8.1836,-7.68614 2.1525,0.0219 3.9069,-1.67401 3.7743,-3.47463 -0.7163,0.71349 -1.4575,1.49268 -2.2449,2.2229 -0.8945,0.82875 -1.932,0.96614 -3.0435,0.42418 -0.4668,-0.22746 -0.9157,-0.49221 -1.3733,-0.74073 l -0.077,0.0982 c 3.6745,3.01948 7.349,6.03897 11.1481,9.15862 z m -18.6186,-30.46432 -0.1778,-0.0218 c -0.9993,0.79497 -1.9982,1.58755 -2.9927,2.38525 -1.0896,0.87056 -1.1412,1.33166 -0.3523,2.45314 1.7341,2.45847 3.4816,4.90585 5.1607,7.39903 0.6936,1.03058 1.2304,2.15861 1.8377,3.24339 l 0.2223,-0.10495 c -0.6438,-1.33051 -1.1859,-2.72375 -1.9598,-3.98143 -1.2189,-1.97964 -2.6068,-3.86268 -3.8987,-5.79923 -1.0113,-1.51738 -0.9457,-1.72952 0.5205,-2.83635 0.3779,-0.28675 0.7647,-0.62585 0.9889,-1.02443 0.2986,-0.52823 0.4414,-1.13951 0.6513,-1.71485 z m 13.1468,18.27141 0.1438,-0.12244 c -0.3659,-0.64422 -0.7137,-1.29683 -1.0979,-1.93029 -0.7683,-1.26453 -1.9006,-2.13056 -3.3027,-2.65416 -1.3731,-0.51196 -2.6848,-0.1047 -3.1159,1.16314 -0.3094,0.90792 -0.193,1.95378 -0.2811,3.13711 0.4512,-0.60191 0.7546,-1.02627 1.077,-1.43727 1.4013,-1.77589 2.1971,-2.21661 4.5726,-0.40219 0.059,0.045 0.1147,0.0995 0.1627,0.15818 0.6138,0.69756 1.2249,1.39497 1.8389,2.09014 z m 12.4221,-15.03555 c -0.3353,-1.79063 -0.8524,-3.31698 -2.1532,-4.49811 -0.8102,-0.7353 -1.693,-0.90019 -2.6713,-0.41919 -1.0974,0.54016 -1.9853,1.31396 -2.6038,2.35449 -0.076,0.1271 -0.1034,0.28415 -0.1826,0.5098 0.721,-0.20753 1.3385,-0.36446 1.9397,-0.56829 0.4579,-0.15598 0.8926,-0.36897 1.3337,-0.56706 1.2927,-0.58436 1.933,-0.47726 2.7696,0.64032 0.5645,0.75674 0.9949,1.6053 1.5679,2.54804 z m 18.310299,-5.11796 c -0.2181,-1.49114 -0.6127,-2.72005 -1.9926,-3.23972 -1.2345,-0.46381 -2.5358,-0.76852 -3.8139,-1.11497 -0.2029,-0.055 -0.4686,-0.002 -0.6742,0.0807 -0.4829,0.19037 -0.812899,1.10647 -0.6022,1.62434 0.2403,0.58976 0.7237,0.42591 1.1748,0.32725 0.3727,-0.0825 0.7462,-0.1769 1.1169,-0.26671 1.5411,-0.37207 3.1655,0.21514 4.0518,1.4686 0.2302,0.32418 0.4393,0.66377 0.7394,1.12043 z m -35.079299,33.85764 c 2.8737,2.25356 5.9463,4.1164 9.6266,4.84889 -3.1757,-1.68222 -6.0422,-3.93525 -9.6266,-4.84889 z m 80.510999,-30.11077 c -3.9928,-0.0848 -6.2374,2.4993 -4.9149,5.56481 0.1164,-3.03536 2.4338,-4.28772 4.9149,-5.56481 z m -99.661199,-7.77522 c -0.4387,-0.97194 -0.9291,-1.81984 -1.2053,-2.72993 -0.4548,-1.49074 0.3683,-2.73375 1.8829,-3.01856 0.2984,-0.0563 0.6134,-0.0344 0.9236,-0.049 -0.8568,-0.41348 -1.7326,-0.7392 -2.614,-0.18406 -0.8739,0.55087 -1.0496,1.43677 -0.9741,2.36421 0.1165,1.44796 0.8223,2.61663 1.9867,3.61973 z m 92.316199,22.96612 c -1.8942,2.20154 -2.8142,6.41628 -1.8125,7.99798 0.2315,-1.30098 0.4238,-2.67692 0.7292,-4.03055 0.3044,-1.34167 0.7215,-2.65866 1.0833,-3.96743 z m -75.078499,22.11633 c 1.2969,-0.0399 2.5185,-0.30654 3.2031,-1.49658 0.5129,-0.89378 0.305,-1.81838 -0.1566,-2.71726 -0.019,2.08629 -1.1424,3.38785 -3.0464,4.21145 z m -16.8885,-19.65344 c -0.5536,-0.33222 -1.0843,-0.70619 -1.6637,-0.99206 -1.4599,-0.72023 -2.8713,0.087 -2.9993,1.80452 1.3138,-1.93848 2.9522,-1.37438 4.6605,-0.81262 z m 4.7752,-23.93403 c -1.5581,1.06914 -2.5361,1.17696 -4.3743,-0.45324 0.5579,0.81166 0.9811,1.82347 2.1485,1.95032 1.103,0.12 1.7466,-0.62023 2.226,-1.49948 z m 87.977199,20.0666 c -2.2179,0.2865 -3.2217,0.90779 -3.0965,1.87238 1.3431,-0.0583 2.0788,-1.03055 3.0965,-1.87238 z M 95.353581,33.775149 c -0.4544,-1.86631 -0.9943,-3.68802 -2.3318,-5.17749 0.7765,1.72497 1.5554,3.45013 2.3318,5.17749 z m -40.9866,20.21626 -0.2546,0.20385 c 1.0473,1.26945 2.0946,2.53891 3.1418,3.81076 l 0.2222,-0.16997 c -1.0366,-1.28074 -2.0706,-2.56131 -3.107,-3.84445 z m 0.8874,30.0846 c -0.9577,-0.32902 -1.9373,-0.66675 -2.8805,-0.99234 1.1257,1.45549 1.8341,1.68531 2.8805,0.99234 z"
         id="path1"
         style="fill:#003c8d;fill-opacity:1;stroke:none;stroke-width:1.2;stroke-dasharray:none;stroke-opacity:1" /></g></g></svg>
